# Blender v2.92.0 OBJ File: ''
# www.blender.org
mtllib box2.mtl
o Cube
v 1.000000 1.000000 -1.000000
v 1.000000 -1.000000 -1.000000
v 1.000000 1.000000 1.000000
v 1.000000 -1.000000 1.000000
v -1.000000 1.000000 -1.000000
v -1.000000 -1.000000 -1.000000
v -1.000000 1.000000 1.000000
v -1.000000 -1.000000 1.000000
vt 0.625000 0.500000
vt 0.875000 0.500000
vt 0.875000 0.750000
vt 0.625000 0.750000
vt 0.375000 0.000000
vt 0.625000 0.000000
vt 0.625000 0.250000
vt 0.375000 0.250000
vt 0.125000 0.500000
vt 0.375000 0.500000
vt 0.375000 0.750000
vt 0.125000 0.750000
vt 0.941968 0.005496
vt 0.931054 0.938021
vt 0.064965 0.935036
vt 0.075879 0.002510
vt 0.964037 0.001567
vt 0.965713 0.997770
vt 0.016200 0.999446
vt 0.014524 0.003242
vt 0.979271 0.008071
vt 0.971237 0.992878
vt 0.032586 0.984844
vt 0.040620 0.000037
vn 0.0000 1.0000 0.0000
vn -1.0000 0.0000 0.0000
vn 0.0000 -1.0000 0.0000
vn 1.0000 0.0000 0.0000
vn 0.0000 0.0000 1.0000
vn 0.0000 0.0000 -1.0000
usemtl Material
s off
f 1/1/1 5/2/1 7/3/1 3/4/1
f 8/5/2 7/6/2 5/7/2 6/8/2
f 6/9/3 2/10/3 4/11/3 8/12/3
f 2/13/4 1/14/4 3/15/4 4/16/4
usemtl Material.001
f 4/17/5 3/18/5 7/19/5 8/20/5
f 6/21/6 5/22/6 1/23/6 2/24/6
